<svg width="512" height="512" viewBox="0 0 512 512" fill="none" xmlns="http://www.w3.org/2000/svg">
<rect x="56" y="122.889" width="88.8889" height="88.8889" fill="white" stroke="#808080"/>
<rect x="144.889" y="211.778" width="88.8889" height="88.8889" fill="white" stroke="#808080"/>
<rect x="144.889" y="34" width="88.8889" height="88.8889" fill="black" stroke="#808080"/>
<rect x="144.889" y="122.889" width="88.8889" height="88.8889" fill="white" stroke="#808080"/>
<rect x="233.778" y="34" width="88.8889" height="88.8889" fill="black" stroke="#808080"/>
<rect x="233.778" y="389.556" width="88.8889" height="88.8889" fill="black" stroke="#808080"/>
<rect x="322.667" y="34" width="88.8889" height="88.8889" fill="black" stroke="#808080"/>
<rect x="322.667" y="389.556" width="88.8889" height="88.8889" fill="black" stroke="#808080"/>
<rect x="367.111" y="122.889" width="88.8889" height="88.8889" fill="black" stroke="#808080"/>
<rect x="278.222" y="234" width="44.4444" height="44.4445" fill="black" stroke="#808080"/>
<rect x="322.667" y="234" width="44.4444" height="44.4445" fill="black" stroke="#808080"/>
<rect x="233.778" y="234" width="44.4444" height="44.4445" fill="black" stroke="#808080"/>
<rect x="322.667" y="278.444" width="44.4444" height="44.4445" fill="black" stroke="#808080"/>
<rect x="367.111" y="300.667" width="88.8889" height="88.8889" fill="black" stroke="#808080"/>
<rect x="144.889" y="389.556" width="88.8889" height="88.8889" fill="black" stroke="#808080"/>
<rect x="144.889" y="300.667" width="88.8889" height="88.8889" fill="white" stroke="#808080"/>
<rect x="233.778" y="122.889" width="88.8889" height="88.8889" fill="white" stroke="#808080"/>
<rect x="322.667" y="189.556" width="44.4444" height="44.4445" fill="black" stroke="#808080"/>
</svg>
